<?xml version="1.0" standalone="no"?>
<!DOCTYPE svg PUBLIC "-//W3C//DTD SVG 20010904//EN"
 "http://www.w3.org/TR/2001/REC-SVG-20010904/DTD/svg10.dtd">
<svg version="1.0" xmlns="http://www.w3.org/2000/svg"
 width="130px" height="130px" viewBox="0 0 875.000000 674.000000"
 preserveAspectRatio="xMidYMid meet">

<g transform="translate(0.000000,674.000000) scale(0.100000,-0.100000)"
fill="white" stroke="none">
<path d="M7286 6716 c-15 -14 -26 -30 -26 -37 0 -20 -41 -364 -44 -366 -1 -2
-15 79 -30 179 -15 100 -32 190 -37 200 -20 36 -56 41 -115 14 -64 -29 -83
-62 -61 -106 11 -21 101 -146 180 -247 19 -26 -3 -11 -134 92 -74 58 -144 108
-157 111 -41 11 -68 -10 -91 -70 -24 -63 -17 -100 21 -116 20 -8 363 -70 389
-70 5 0 9 -4 9 -8 0 -5 -84 -13 -186 -20 -210 -12 -234 -20 -234 -75 1 -43 33
-113 60 -127 30 -16 53 -6 205 88 71 45 131 79 133 77 2 -2 -48 -63 -112 -136
-91 -103 -116 -138 -116 -160 0 -36 25 -62 83 -84 39 -15 49 -15 74 -3 25 11
31 24 50 101 23 95 37 126 28 62 -3 -22 -32 -418 -66 -880 -33 -462 -62 -849
-64 -861 -4 -19 -19 -23 -152 -41 -82 -11 -151 -19 -154 -17 -4 2 -9 97 -13
211 -4 115 -9 235 -12 268 l-6 60 -309 245 c-170 135 -311 245 -313 245 -2 0
-131 -119 -285 -263 l-281 -264 0 -382 0 -382 -137 -43 c-314 -98 -622 -225
-795 -327 -50 -29 -100 -56 -110 -60 -13 -4 29 -36 160 -123 209 -139 482
-343 676 -506 77 -63 145 -114 151 -111 6 2 122 76 257 164 1063 693 1812
1086 2583 1358 147 52 149 53 97 53 -76 1 -531 -27 -782 -49 -118 -10 -217
-16 -219 -14 -9 9 -197 1902 -190 1924 9 32 8 33 64 -175 56 -213 69 -228 162
-186 49 23 78 61 69 94 -3 13 -66 88 -140 167 -74 80 -134 146 -132 148 2 1
75 -40 162 -93 86 -52 166 -95 176 -95 67 0 116 159 59 189 -10 6 -80 13 -155
17 -75 4 -135 9 -133 11 2 2 69 15 148 29 81 15 152 33 162 42 22 20 21 66 -3
120 -20 44 -56 67 -87 55 -10 -3 -78 -54 -152 -112 -167 -131 -177 -138 -166
-121 4 7 52 76 105 154 54 78 101 151 104 164 10 32 -16 68 -61 87 -68 29 -80
29 -107 1z m-1063 -1888 l87 -59 0 -47 c0 -26 3 -77 7 -114 l6 -68 -187 0
-186 0 1 113 0 112 82 66 c45 36 87 64 92 61 6 -3 49 -32 98 -64z"/>
<path d="M1002 5985 c-74 -151 -208 -344 -328 -475 -35 -39 -64 -72 -64 -73 0
-2 24 4 53 13 73 25 187 49 187 41 0 -7 -136 -177 -206 -258 l-36 -43 57 20
c67 23 205 53 213 46 8 -9 -103 -154 -215 -283 l-52 -60 82 24 c94 27 167 39
167 28 0 -13 -106 -150 -183 -238 -56 -63 -66 -79 -47 -73 14 4 103 10 198 13
l172 6 0 -161 0 -161 -27 4 c-160 29 -912 62 -890 40 4 -5 58 -23 120 -41 62
-18 196 -62 297 -99 102 -37 383 -135 625 -219 652 -226 942 -345 1430 -587
970 -480 1983 -1162 2795 -1883 235 -208 638 -596 833 -801 99 -104 195 -205
212 -224 l32 -33 119 67 c120 68 404 252 404 262 0 9 -260 339 -382 484 -228
274 -418 481 -722 785 -412 412 -692 654 -1063 920 -727 521 -1632 908 -2663
1139 l-145 32 -3 177 -2 176 52 0 c57 0 173 -15 204 -26 10 -4 -13 26 -52 67
-75 79 -129 147 -123 154 5 5 126 -21 164 -35 27 -10 24 -5 -26 47 -31 32 -78
85 -105 118 -47 60 -48 60 -22 63 23 3 118 -17 165 -35 10 -4 -19 33 -65 81
-88 94 -111 126 -90 126 7 0 47 -9 88 -20 41 -11 77 -20 79 -20 3 0 -29 35
-70 78 -91 93 -147 168 -201 267 -22 41 -41 75 -43 75 -1 0 -23 -35 -47 -77
-52 -89 -129 -194 -208 -284 -34 -39 -47 -60 -35 -55 22 8 135 36 148 36 14 0
-33 -60 -108 -139 -38 -41 -61 -71 -50 -67 40 15 148 37 166 34 16 -3 10 -14
-37 -73 -30 -38 -76 -91 -101 -117 l-46 -47 47 14 c77 23 146 34 139 21 -15
-26 -80 -105 -132 -160 -36 -37 -49 -56 -36 -52 44 12 153 26 208 26 l57 0 0
-165 c0 -139 -2 -165 -15 -165 -8 0 -92 13 -187 29 -166 29 -577 91 -598 91
-6 0 -10 63 -10 166 l0 166 178 -4 c97 -3 186 -9 197 -13 11 -5 -15 28 -57 73
-74 79 -202 241 -196 248 6 5 141 -24 205 -44 l63 -20 -71 77 c-82 88 -214
259 -206 267 10 10 207 -34 269 -61 9 -4 -17 28 -58 72 -79 82 -190 220 -183
227 6 6 122 -19 198 -43 l65 -20 -80 82 c-136 139 -223 258 -317 436 l-53 100
-32 -64z"/>
<path d="M10 4127 c0 -7 159 -113 353 -236 837 -534 1191 -784 1661 -1177 440
-367 754 -664 1541 -1455 709 -714 942 -958 1142 -1203 l32 -39 118 12 c285
30 614 102 900 196 211 70 413 153 413 170 0 31 -750 763 -1055 1030 -775 679
-1823 1379 -2720 1816 -424 207 -806 361 -1358 548 -164 56 -407 141 -540 190
-218 80 -340 120 -449 149 -28 8 -38 7 -38 -1z"/>
<path d="M8300 4026 c-305 -110 -561 -221 -901 -392 -463 -231 -867 -471
-1625 -963 l-111 -72 317 -317 c174 -174 371 -379 438 -454 l121 -137 43 35
c376 312 1104 1117 1440 1594 94 134 468 745 468 765 0 9 -14 5 -190 -59z"/>
<path d="M8662 3850 c-178 -313 -426 -685 -628 -944 -380 -489 -933 -1080
-1298 -1388 l-29 -25 95 -114 c52 -63 143 -177 203 -254 59 -77 112 -144 115
-148 15 -17 310 251 473 428 551 599 926 1329 1081 2110 37 183 70 410 64 443
-2 13 -26 -21 -76 -108z"/>
<path d="M140 3684 c141 -147 331 -360 560 -624 263 -304 385 -440 671 -745
304 -325 431 -467 627 -704 314 -376 594 -751 852 -1139 l165 -249 120 -36
c350 -106 710 -164 1118 -183 82 -3 147 -3 147 2 0 41 -1535 1602 -1975 2010
-544 503 -962 836 -1525 1213 -195 131 -624 409 -810 526 -40 25 -34 16 50
-71z"/>
<path d="M140 3286 c0 -26 88 -308 134 -428 133 -351 260 -597 471 -913 381
-570 903 -1053 1500 -1386 137 -77 335 -172 341 -166 6 5 -188 280 -350 497
-284 382 -580 734 -960 1144 -448 484 -513 556 -730 806 -308 355 -406 463
-406 446z"/>
</g>
</svg>
